<?xml version="1.0" standalone="no"?>
<!DOCTYPE svg PUBLIC "-//W3C//DTD SVG 20010904//EN"
 "http://www.w3.org/TR/2001/REC-SVG-20010904/DTD/svg10.dtd">
<svg version="1.0" xmlns="http://www.w3.org/2000/svg"
 width="512.000000pt" height="512.000000pt" viewBox="0 0 512.000000 512.000000"
 preserveAspectRatio="xMidYMid meet">

<g transform="translate(0.000000,512.000000) scale(0.100000,-0.100000)"
fill="#000000" stroke="none">
<path d="M2508 5102 c-14 -9 -74 -57 -133 -107 -406 -342 -907 -607 -1438
-760 -84 -24 -253 -64 -376 -89 -122 -25 -231 -51 -241 -56 -51 -27 -50 -20
-50 -540 0 -267 5 -537 10 -600 88 -971 586 -1837 1380 -2401 92 -65 839 -530
873 -543 19 -7 36 -7 56 0 60 23 824 508 962 610 168 126 459 408 588 573 401
508 642 1114 701 1761 5 63 10 333 10 600 0 520 1 513 -50 540 -10 5 -119 31
-241 56 -123 25 -292 65 -376 89 -533 153 -1037 421 -1450 770 -117 99 -141
115 -173 115 -14 0 -37 -8 -52 -18z m168 -309 c534 -427 1101 -688 1814 -837
l155 -33 3 -404 c2 -242 -1 -460 -8 -544 -49 -609 -273 -1177 -652 -1658 -122
-155 -390 -416 -548 -534 -100 -75 -633 -417 -868 -557 -15 -9 -700 415 -852
527 -200 147 -436 373 -583 557 -275 344 -479 762 -582 1195 -73 305 -87 477
-83 1009 l3 410 155 32 c376 77 687 179 1001 327 261 123 579 321 804 501 66
53 125 94 131 92 6 -2 56 -40 110 -83z"/>
<path d="M2535 4563 c-11 -3 -58 -33 -105 -68 -96 -70 -235 -163 -327 -219
-35 -20 -70 -47 -78 -59 -41 -59 8 -152 81 -151 42 0 156 66 356 206 l96 67
169 -112 c315 -210 614 -363 966 -493 117 -43 364 -118 475 -144 l52 -12 0
-236 c0 -131 -5 -289 -10 -352 -20 -219 -71 -459 -140 -652 -43 -123 -39 -162
20 -193 42 -22 74 -19 109 11 54 45 145 357 193 659 17 107 21 194 25 500 l5
371 -26 31 c-24 28 -41 35 -164 63 -164 39 -504 150 -657 215 -334 143 -610
298 -885 500 -85 62 -117 76 -155 68z"/>
<path d="M1718 4061 c-27 -24 -33 -36 -33 -71 0 -35 6 -47 33 -71 36 -32 69
-36 112 -14 59 31 69 107 21 156 -40 40 -89 40 -133 0z"/>
<path d="M1262 3889 c-95 -32 -248 -77 -340 -100 -148 -36 -170 -44 -196 -71
l-28 -31 5 -371 c4 -307 8 -393 25 -501 71 -450 210 -815 447 -1170 182 -273
423 -522 700 -723 40 -29 203 -134 361 -232 235 -147 295 -180 324 -180 30 0
88 32 310 171 413 256 567 374 765 580 143 149 170 185 170 231 0 32 -7 46
-33 69 -32 29 -56 34 -98 23 -12 -3 -64 -54 -117 -114 -111 -125 -251 -253
-392 -358 -105 -77 -586 -382 -604 -382 -19 0 -503 306 -606 383 -507 378
-854 910 -989 1519 -49 217 -58 306 -63 634 l-5 310 128 33 c210 53 455 138
487 168 37 36 38 98 2 137 -13 14 -31 26 -39 26 -8 0 -20 2 -28 4 -7 2 -91
-22 -186 -55z"/>
<path d="M3130 3374 c-22 -9 -173 -152 -397 -377 l-363 -362 -177 177 c-193
191 -219 208 -307 194 -60 -10 -89 -32 -232 -178 -115 -117 -132 -139 -143
-182 -13 -52 -8 -92 16 -141 8 -16 189 -204 401 -418 411 -411 415 -415 480
-388 35 15 1165 1145 1185 1186 24 50 28 97 12 150 -12 43 -33 69 -152 187
-83 82 -153 143 -175 153 -47 19 -103 19 -148 -1z m-240 -919 l-525 -525 -327
327 c-181 181 -328 332 -328 338 0 5 46 56 102 112 l103 103 205 -205 c206
-205 206 -205 250 -205 l44 0 396 395 395 395 105 -105 105 -105 -525 -525z"/>
<path d="M3912 1935 c-22 -9 -38 -27 -48 -51 -43 -103 84 -188 157 -106 50 55
37 131 -26 158 -41 17 -42 17 -83 -1z"/>
</g>
</svg>
