<?xml version="1.0" standalone="no"?>
<!DOCTYPE svg PUBLIC "-//W3C//DTD SVG 20010904//EN"
 "http://www.w3.org/TR/2001/REC-SVG-20010904/DTD/svg10.dtd">
<svg version="1.0" xmlns="http://www.w3.org/2000/svg"
 width="512.000000pt" height="512.000000pt" viewBox="0 0 512.000000 512.000000"
 preserveAspectRatio="xMidYMid meet">

<g transform="translate(0.000000,512.000000) scale(0.100000,-0.100000)"
fill="#000000" stroke="none">
<path d="M2428 4971 c-206 -66 -345 -282 -307 -480 7 -37 8 -66 3 -68 -5 -2
-229 -118 -499 -258 l-490 -253 -52 49 c-214 203 -556 133 -691 -140 -36 -73
-37 -78 -37 -186 0 -108 1 -113 38 -187 26 -53 54 -91 93 -127 53 -48 164
-111 198 -111 15 0 16 -60 16 -650 0 -628 -1 -650 -19 -650 -10 0 -50 -16 -88
-35 -88 -44 -163 -121 -206 -212 -30 -64 -32 -75 -32 -178 0 -103 2 -114 32
-178 132 -278 480 -352 696 -148 l52 50 495 -256 c272 -141 497 -257 499 -259
2 -2 -1 -29 -8 -61 -22 -114 24 -265 109 -357 216 -234 597 -177 731 109 45
96 54 190 27 293 -2 7 207 121 497 271 l499 259 56 -51 c218 -200 553 -131
688 142 36 73 37 78 37 186 0 108 -1 113 -38 187 -26 54 -54 91 -95 129 -53
49 -162 109 -197 109 -13 0 -15 75 -15 648 l0 648 53 17 c29 9 78 34 107 54
229 161 254 483 52 675 -66 63 -116 91 -199 113 -237 62 -486 -91 -543 -334
-12 -50 -9 -149 5 -196 5 -18 -48 -48 -475 -273 l-481 -253 -38 31 c-58 45
-159 89 -247 107 -202 41 -437 -53 -569 -229 -253 -337 -90 -812 320 -934 81
-24 229 -24 310 0 226 67 391 249 431 476 21 122 4 231 -56 351 l-29 57 461
241 460 241 38 -34 c48 -43 113 -81 168 -97 l42 -12 0 -647 0 -647 -46 -13
c-179 -50 -320 -252 -300 -429 3 -31 7 -67 9 -79 2 -22 -42 -46 -488 -278
-269 -139 -494 -254 -499 -254 -5 0 -30 20 -56 44 -166 155 -415 154 -582 -1
-45 -43 -50 -45 -76 -34 -46 22 -957 493 -964 500 -4 4 -2 32 4 64 39 186
-105 413 -296 467 l-46 13 0 647 0 647 46 13 c191 54 335 281 296 467 -6 32
-8 60 -4 64 7 7 887 463 954 495 l37 17 44 -40 c181 -167 439 -162 612 11 197
197 160 535 -75 686 -107 68 -254 88 -372 51z"/>
</g>
</svg>
